<mxfile host="app.diagrams.net" modified="2023-12-02T04:32:10.974Z" agent="Mozilla/5.0 (Linux; Android 10; K) AppleWebKit/537.36 (KHTML, like Gecko) Chrome/119.0.0.0 Safari/537.36" version="22.1.5" etag="LuVa_T68fcWbOWmtNR6H" type="github">
  <diagram name="PÃ¡gina-1" id="M7Ff38gAhMFPNSKYbJVL">
    <mxGraphModel>
      <root>
        <mxCell id="0" />
        <mxCell id="1" parent="0" />
      </root>
    </mxGraphModel>
  </diagram>
</mxfile>
